<?xml version="1.0" encoding="utf-8"?>
<svg xmlns="http://www.w3.org/2000/svg" viewBox="0 0 500 500">
  <g id="Layer_1" style="" transform="matrix(0.615146, 0, 0, 0.615146, -119.503586, 117.950783)">
    <path fill="#f34329" opacity="1" stroke="none" d="M 222.792 128.068 C 222.851 125.243 222.91 122.417 222.957 118.369 C 222.892 111.653 222.839 106.16 222.786 100.667 C 222.852 95.583 222.917 90.498 222.948 84.457 C 222.914 83.501 222.784 82.84 222.784 82.84 C 222.855 79.118 222.926 75.396 222.984 70.428 C 222.903 35.834 222.836 2.486 222.769 -30.862 C 222.834 -32.346 222.899 -33.83 222.932 -36.193 C 222.899 -37.071 222.77 -37.729 222.77 -37.729 C 222.835 -41.003 222.899 -44.277 222.946 -48.715 C 222.875 -51.761 222.822 -53.642 222.768 -55.524 C 222.829 -56.155 222.89 -56.787 222.938 -58.485 C 222.876 -62.777 222.827 -66.003 222.778 -69.228 C 222.844 -71.605 222.91 -73.982 222.968 -77.476 C 223.814 -82.341 224.667 -86.09 225.52 -89.841 C 229.137 -93.211 232.392 -97.241 236.428 -99.84 C 274.654 -124.52 313.056 -148.88 351.307 -173.52 C 362.101 -180.47 372.456 -180.6 383.367 -173.8 C 422.668 -149.32 462.094 -125.07 501.457 -100.71 C 510.633 -95.031 514.079 -85.96 514.1 -74.933 C 514.171 -37.947 514.286 -0.961 514.321 36.026 C 514.378 94.931 514.485 153.838 514.271 212.743 C 514.247 219.216 516.089 222.979 521.465 225.363 C 525.701 227.241 529.715 229.712 535.059 232.581 C 491.528 261.415 448.623 289.833 404.936 318.768 C 414.595 324.894 423.547 330.622 432.545 336.266 C 452.341 348.683 472.25 360.893 491.893 373.587 C 495.823 376.127 498.451 375.716 502.076 373.362 C 556.084 338.298 610.169 303.372 664.236 268.413 C 664.778 268.062 665.352 267.758 665.853 267.348 C 674.571 260.187 682.784 258.89 691.581 267.945 C 695.886 272.375 701.811 274.951 707.372 278.609 C 706.707 279.192 706.057 279.92 705.281 280.42 C 643.23 320.423 581.149 360.372 519.186 400.537 C 516.963 401.978 514.518 405.518 514.501 408.097 C 514.234 449.421 514.345 490.747 514.383 532.072 C 514.384 532.743 514.551 533.413 514.747 534.888 C 517.494 533.32 520.056 532.016 522.476 530.453 C 599.118 480.981 675.73 431.454 752.432 382.09 C 755.888 379.865 756.796 377.367 756.748 373.335 C 756.572 358.384 756.678 343.429 756.678 326.551 C 767.333 337.117 776.729 346.379 786.03 355.751 C 786.881 356.608 787.543 358.148 787.597 359.406 C 788.383 377.652 787.991 396.827 771.114 407.681 C 730.141 434.031 689.305 460.632 648.442 487.183 C 607.944 513.496 567.471 539.854 527.008 566.231 C 516.473 573.098 506.255 571.833 496.141 565.195 C 476.572 552.351 457.069 539.387 437.413 526.701 C 373.756 485.62 310.006 444.706 246.401 403.529 C 239.626 399.142 232.874 394.2 227.346 388.179 C 220.007 380.187 223.792 369.187 222.971 358.178 C 222.904 341.827 222.852 326.745 222.8 311.663 C 222.868 307.938 222.936 304.213 222.987 299.248 C 222.91 292.055 222.85 286.103 222.79 280.151 C 222.86 276.877 222.93 273.603 222.983 269.091 C 222.914 253.682 222.862 239.511 222.81 225.341 C 222.879 223.417 222.947 221.493 222.997 218.463 C 222.922 215.908 222.865 214.459 222.808 213.01 C 222.875 210.638 222.942 208.265 222.993 204.675 C 222.916 188.831 222.855 174.205 222.794 159.579 C 222.858 158.53 222.922 157.48 222.971 155.28 C 222.901 145.442 222.847 136.755 222.792 128.068 M 257.182 371.16 C 257.437 371.549 257.782 371.712 258.966 372.164 C 265.375 376.488 271.735 380.901 278.2 385.124 C 344.168 428.218 410.151 471.284 476.141 514.337 C 478.408 515.816 480.796 517.077 484.079 518.995 C 484.079 515.523 484.08 513.112 484.079 510.701 C 484.066 478.285 483.912 445.867 484.172 413.454 C 484.217 407.844 482.43 404.959 478.097 402.264 C 441.156 379.288 404.414 355.936 367.453 332.998 C 357.311 326.704 352.708 318.324 352.848 305.289 C 353.347 258.725 353.107 212.152 353.107 165.582 C 353.108 115.816 353.116 66.05 352.905 16.285 C 352.892 13.384 351.727 9.039 349.788 7.816 C 320.24 -10.821 290.473 -29.049 260.422 -47.889 C 259.74 -48.193 259.058 -48.497 257.808 -49.385 C 257.318 -49.561 256.828 -49.736 256.026 -50.514 C 251.434 -49.902 253.671 -46.002 253.666 -43.782 C 253.508 25.152 253.506 94.085 253.491 163.019 C 253.477 229.442 253.434 295.865 253.614 362.287 C 253.622 365.074 255.761 367.853 256.953 370.542 C 256.953 370.542 256.878 370.611 257.182 371.16 M 384.047 135.567 C 384.047 187.734 384.047 239.9 384.047 293.385 C 386.888 291.71 388.692 290.744 390.409 289.62 C 419.868 270.343 449.275 250.973 478.815 231.845 C 482.696 229.332 484.205 226.611 484.195 221.606 C 484.024 132.15 484.045 42.693 484.007 -46.764 C 484.006 -48.677 483.797 -50.59 483.686 -52.497 C 482.72 -52.441 482.234 -52.571 481.927 -52.373 C 450.194 -31.92 418.45 -11.485 386.825 9.163 C 385.274 10.175 383.903 13.064 383.899 15.083 C 383.82 54.787 383.956 94.492 384.047 135.567 M 288.945 -95.541 C 282.031 -91.051 275.117 -86.565 267.85 -81.851 C 268.963 -80.899 269.388 -80.43 269.895 -80.116 C 302.117 -60.129 334.319 -40.103 366.651 -20.327 C 368.312 -19.311 371.53 -19.612 373.279 -20.704 C 391.825 -32.283 410.241 -44.106 428.648 -55.945 C 442.069 -64.576 455.422 -73.331 469.385 -82.407 C 467.708 -83.636 466.898 -84.314 466.018 -84.862 C 434.182 -104.68 402.372 -124.55 370.412 -144.13 C 368.675 -145.19 365.221 -144.66 363.327 -143.46 C 338.706 -127.82 314.222 -111.93 288.945 -95.541 Z" id="path2" style="stroke-width: 1.315;"/>
    <path fill="#378ec6" opacity="1" stroke="none" d="M 959.222 -33.462 C 959.572 -33.359 959.812 -33.124 959.989 -32.026 C 960.549 -30.656 961.06 -30.016 961.488 -29.336 C 961.405 -29.297 961.374 -29.491 961.458 -29.128 C 961.896 -28.469 962.252 -28.174 962.558 -27.885 C 962.509 -27.89 962.545 -27.988 962.558 -27.54 C 963.064 -26.466 963.556 -25.84 963.969 -25.219 C 963.891 -25.224 963.952 -25.382 963.909 -24.917 C 964.357 -23.795 964.848 -23.138 965.339 -22.48 C 965.339 -22.48 965.202 -22.425 965.129 -21.985 C 966.421 -19.137 967.786 -16.729 969.103 -14.263 C 969.055 -14.204 968.959 -14.321 968.895 -13.79 C 969.769 -11.319 970.705 -9.379 971.595 -7.387 C 971.545 -7.335 971.465 -7.454 971.405 -6.983 C 971.725 -5.41 972.095 -4.307 972.525 -2.908 C 972.595 -2.612 972.635 -2.008 972.455 -1.563 C 972.835 0.457 973.395 2.032 973.915 3.631 C 973.865 3.655 973.895 3.546 973.855 4.157 C 973.825 16.752 974.015 28.742 973.715 40.717 C 973.595 45.359 972.355 49.968 971.775 54.665 C 971.925 54.737 971.885 55.08 971.335 54.845 C 969.636 54.554 968.482 54.497 967.064 54.405 C 966.8 54.37 966.281 54.249 966.281 54.249 C 966.281 54.249 966.281 54.349 966.257 54.098 C 966.237 53.846 966.163 53.348 966.037 52.97 C 965.5 52.32 965.088 52.047 964.779 51.768 C 964.881 51.761 964.853 51.98 964.738 51.593 C 964.195 50.967 963.767 50.728 963.436 50.434 C 963.534 50.379 963.593 50.61 963.463 50.205 C 962.628 49.498 961.924 49.196 960.924 48.838 C 960.628 48.782 960.042 48.642 960.042 48.642 C 960.042 48.642 959.989 48.782 959.937 48.451 C 959.495 47.881 959.106 47.643 958.716 47.404 C 958.716 47.404 958.716 47.507 958.679 47.264 C 958.645 47.021 958.578 46.565 958.47 46.182 C 957.974 45.496 957.586 45.192 957.283 44.909 C 957.367 44.93 957.303 45.105 957.161 44.703 C 956.309 44.006 955.597 43.711 954.585 43.383 C 954.285 43.35 953.69 43.244 953.69 43.244 C 953.69 43.244 953.67 43.354 953.495 42.983 C 952.188 41.916 951.055 41.22 949.923 40.523 C 949.923 40.523 949.87 40.629 949.663 40.238 C 945.807 37.892 942.157 35.937 938.508 33.982 C 938.508 33.982 937.94 33.862 937.435 33.395 C 932.651 31.086 928.371 29.245 924.37 27.119 C 914.32 21.681 903.401 20.856 892.326 22.116 C 889.151 22.477 886.112 24.245 882.471 25.512 C 870.922 25.247 862.489 31.869 853.803 37.803 C 853.803 37.803 853.905 37.842 853.545 37.863 C 852.591 38.35 851.997 38.816 851.404 39.283 C 851.404 39.283 851.435 39.309 851.046 39.389 C 849.609 40.312 848.561 41.155 847.513 41.997 C 846.437 42.704 845.362 43.411 843.77 44.58 C 842.969 45.393 842.683 45.743 842.397 46.094 C 842.019 46.118 841.706 46.285 841.074 46.979 C 840.345 47.618 839.969 47.69 839.161 47.701 C 838.377 48.237 837.997 48.654 837.709 48.993 C 837.802 48.917 837.946 49.117 837.582 49.192 C 836.947 49.693 836.675 50.119 836.403 50.544 C 836.403 50.544 836.315 50.405 836.057 50.53 C 835.576 51.106 835.352 51.556 835.129 52.006 C 835.129 52.006 835.087 52.483 834.773 52.871 C 834.217 53.626 833.976 53.994 833.734 54.362 C 833.734 54.362 833.296 54.425 832.72 54.593 C 831.876 55.217 831.608 55.672 831.34 56.128 C 831.34 56.128 831.303 56.644 831.018 57.051 C 830.405 57.72 830.184 58.064 830.069 58.488 C 830.069 58.488 829.989 58.481 829.786 58.568 C 829.584 58.656 829.164 58.673 828.622 58.593 C 826.989 58.521 825.898 58.527 824.536 58.473 C 824.266 58.412 823.75 58.197 823.75 58.197 C 823.75 58.197 823.71 57.702 823.544 57.14 C 823.036 56.307 822.693 56.035 822.35 55.764 C 821.618 55.137 820.886 54.51 819.85 53.188 C 819.146 52.235 818.745 51.977 818.103 51.699 C 817.863 51.679 817.388 51.581 817.388 51.581 C 817.388 51.581 817.325 51.135 817.131 50.486 C 816.438 49.555 815.939 49.272 815.115 48.877 C 814.022 48.263 813.254 47.76 812.487 47.257 C 812.487 47.257 812.392 47.367 812.345 47.05 C 811.9 46.491 811.504 46.251 811.107 46.011 C 811.107 46.011 811.096 46.114 811.006 45.793 C 810.549 45.242 810.181 45.011 809.813 44.78 C 809.813 44.78 809.805 44.784 809.582 44.437 C 808.267 43.362 807.176 42.634 806.085 41.905 C 806.085 41.905 806.044 42.011 805.869 41.634 C 804.554 40.56 803.413 39.862 802.272 39.165 C 801.787 38.744 801.301 38.323 800.186 37.499 C 767.613 18.25 736.034 18.467 704.846 39.224 C 704.224 39.512 703.602 39.801 702.449 40.478 C 701.654 41.231 701.39 41.595 701.126 41.958 C 701.126 41.958 701.265 41.95 700.883 41.951 C 699.922 42.435 699.343 42.918 698.764 43.402 C 698.764 43.402 698.78 43.414 698.459 43.509 C 697.879 43.979 697.62 44.353 697.362 44.727 C 697.362 44.727 697.465 44.693 697.076 44.776 C 695.726 45.752 694.766 46.647 693.806 47.542 C 692.618 48.537 691.43 49.532 689.731 51.072 C 688.982 52.057 688.744 52.497 688.505 52.936 C 688.505 52.936 688.613 52.846 688.191 52.971 C 686.656 54.387 685.543 55.678 684.43 56.97 C 684.098 57.016 683.844 57.193 683.292 57.966 C 682.683 58.89 682.45 59.35 682.218 59.81 C 682.218 59.81 682.34 59.811 682.01 59.88 C 681.427 60.355 681.174 60.762 680.921 61.169 C 680.503 61.28 680.202 61.546 679.605 62.519 C 678.42 64.235 677.647 65.4 676.874 66.565 C 676.503 66.698 676.254 66.965 675.761 67.907 C 674.735 69.669 674.076 70.891 673.417 72.113 C 673.417 72.113 673.515 72.164 673.153 72.389 C 670.666 76.424 668.541 80.234 666.051 84.363 C 665.426 85.608 665.166 86.532 664.954 87.399 C 665.002 87.34 665.096 87.459 664.623 87.577 C 663.545 89.903 662.94 92.112 662.366 94.306 C 662.396 94.293 662.427 94.357 662.012 94.547 C 659.686 103.254 656.974 111.673 656.08 120.313 C 655.119 129.603 655.863 139.1 655.863 148.932 C 626.844 148.932 598.102 149.1 569.363 148.819 C 561.693 148.744 554.04 147.227 546.366 146.533 C 545.059 146.415 543.69 147.113 541.903 147.39 C 538.407 145.991 535.358 144.637 532.308 143.283 C 532.308 143.283 532.262 143.385 532.038 143.029 C 529.886 141.437 527.958 140.2 526.031 138.964 C 525.929 138.529 525.687 138.228 524.791 137.642 C 523.19 136.384 522.1 135.545 521.011 134.707 C 520.955 134.325 520.769 134.047 520.021 133.485 C 519.192 132.838 518.792 132.578 518.393 132.318 C 518.393 132.318 518.397 132.444 518.329 132.089 C 517.89 131.469 517.517 131.203 517.144 130.937 C 517.144 130.937 517.129 131.063 517.061 130.71 C 516.63 130.048 516.269 129.738 515.907 129.428 C 515.881 129.024 515.717 128.701 515.063 128.061 C 514.709 127.661 514.566 127.033 514.53 126.598 C 513.979 125.591 513.463 125.018 513.035 124.41 C 513.124 124.375 513.137 124.58 513.049 124.2 C 512.568 123.552 512.173 123.284 511.871 123.024 C 511.963 123.034 511.907 123.225 511.821 122.849 C 511.37 122.17 511.005 121.866 510.691 121.567 C 510.74 121.571 510.706 121.673 510.696 121.225 C 510.185 120.158 509.684 119.539 509.26 118.934 C 509.336 118.947 509.252 119.088 509.34 118.569 C 508.545 117.014 507.663 115.979 506.793 114.914 C 506.806 114.884 506.842 114.932 506.86 114.474 C 506.407 113.346 505.937 112.675 505.487 112.052 C 505.508 112.1 505.416 112.139 505.506 111.597 C 502.467 99.277 499.503 87.454 500.732 75.005 C 501.373 68.51 502.3 62.049 503.089 55.644 C 503.08 55.716 502.953 55.67 503.329 55.475 C 503.891 54.439 504.077 53.598 504.263 52.835 C 504.263 52.915 504.126 52.859 504.521 52.696 C 505.111 51.689 505.305 50.844 505.469 50.067 C 505.44 50.135 505.34 50.032 505.749 49.974 C 506.414 48.646 506.67 47.376 506.926 46.107 C 506.926 46.107 507.045 45.591 507.368 45.043 C 508.353 43.248 509.014 42.001 509.676 40.754 C 509.676 40.754 509.588 40.712 509.859 40.602 C 510.319 40.089 510.508 39.688 510.697 39.286 C 510.697 39.286 510.786 39.272 511.076 38.982 C 512.08 37.566 512.794 36.44 513.508 35.314 C 513.508 35.314 513.407 35.244 513.708 35.17 C 514.271 34.69 514.534 34.285 514.796 33.88 C 515.897 32.806 516.998 31.731 518.573 30.12 C 519.351 29.197 519.655 28.813 519.96 28.428 C 520.959 27.636 521.958 26.845 523.458 25.626 C 524.301 24.958 524.564 24.642 524.751 24.25 C 525.848 23.593 526.946 22.937 528.703 21.824 C 532.858 19.627 536.354 17.884 540.138 16.488 C 541.439 15.886 542.453 14.939 543.421 13.797 C 543.375 13.603 543.588 13.275 544.016 13.027 C 546.653 4.189 548.888 -4.393 551.057 -12.994 C 551.859 -16.177 552.506 -19.406 553.279 -22.601 C 553.334 -22.587 553.363 -22.469 553.755 -22.648 C 554.353 -23.679 554.56 -24.531 554.746 -25.373 C 554.726 -25.363 554.707 -25.409 555.072 -25.54 C 555.672 -26.44 555.907 -27.208 556.162 -27.929 C 556.182 -27.881 556.085 -27.876 556.398 -28.034 C 556.918 -28.625 557.125 -29.059 557.334 -29.394 C 557.335 -29.295 557.157 -29.335 557.535 -29.501 C 558.176 -30.47 558.438 -31.273 558.701 -32.075 C 558.696 -32.491 558.826 -32.849 559.706 -33.424 C 560.554 -34.189 560.789 -34.678 560.982 -35.206 C 560.941 -35.245 560.931 -35.362 561.292 -35.385 C 561.939 -36.091 562.225 -36.775 562.511 -37.46 C 563.27 -38.536 564.029 -39.612 565.212 -41.228 C 565.885 -42.141 566.135 -42.513 566.384 -42.886 C 566.803 -42.94 567.137 -43.152 567.798 -43.977 C 568.461 -44.825 568.711 -45.217 568.961 -45.609 C 568.961 -45.609 568.857 -45.61 569.183 -45.685 C 569.756 -46.16 570.002 -46.56 570.249 -46.959 C 570.249 -46.959 570.145 -46.898 570.54 -46.989 C 571.891 -47.978 572.846 -48.875 573.801 -49.773 C 574.232 -49.796 574.603 -49.969 575.431 -50.74 C 576.987 -52.048 578.026 -52.909 579.066 -53.769 C 579.066 -53.769 578.955 -53.782 579.407 -53.87 C 582.531 -55.741 585.203 -57.524 587.876 -59.307 C 587.876 -59.307 588.456 -59.389 589.208 -59.474 C 592.605 -60.348 595.25 -61.137 598.157 -61.568 C 599.367 -60.756 600.344 -59.845 601.256 -59.917 C 609.437 -60.561 617.607 -61.379 626.072 -62.114 C 626.363 -62.083 626.927 -61.91 627.252 -61.548 C 630.425 -60.574 633.279 -59.437 636.121 -59.474 C 640.121 -59.527 641.75 -63.727 639.651 -68.02 C 642.159 -74.586 644.628 -80.666 647.097 -86.736 C 647.497 -87.296 647.896 -87.856 648.656 -89.066 C 649.653 -90.996 650.289 -92.276 650.924 -93.556 C 650.924 -93.556 650.839 -93.586 651.181 -93.816 C 652.234 -95.296 652.946 -96.546 653.659 -97.796 C 661.373 -106.1 669.088 -114.41 677.411 -123.24 C 679.081 -124.67 680.143 -125.57 681.205 -126.46 C 681.602 -126.45 681.943 -126.6 682.753 -127.35 C 685.127 -129.16 686.976 -130.52 688.824 -131.88 C 688.824 -131.88 688.715 -131.91 689.18 -131.98 C 693.644 -134.27 697.643 -136.49 701.642 -138.72 C 701.642 -138.72 702.145 -138.74 702.76 -138.91 C 704.379 -139.41 705.383 -139.74 706.69 -139.71 C 708.187 -139.46 709.45 -139.33 710.564 -139.71 C 733.911 -147.74 757.399 -148.47 781.073 -141.53 C 785.645 -140.19 790.267 -139.05 794.855 -137.88 C 794.844 -137.93 794.948 -137.97 795.05 -137.49 C 799.698 -135.04 804.245 -133.07 808.778 -131.04 C 808.764 -130.98 808.649 -130.94 808.81 -130.52 C 809.744 -129.86 810.517 -129.63 811.26 -129.4 C 811.23 -129.41 811.289 -129.45 811.286 -128.94 C 812.552 -127.94 813.822 -127.44 815.078 -126.89 C 815.065 -126.83 814.96 -126.81 815.106 -126.41 C 815.982 -125.71 816.711 -125.43 817.441 -125.14 C 817.845 -125.14 818.19 -124.98 818.615 -123.89 C 820.482 -122.02 822.208 -120.92 823.935 -119.83 C 823.935 -119.83 823.807 -119.75 823.919 -119.45 C 824.462 -118.93 824.892 -118.71 825.339 -118.53 C 825.356 -118.57 825.435 -118.6 825.452 -118.23 C 825.815 -117.6 826.16 -117.33 826.506 -117.06 C 826.506 -117.06 826.355 -116.98 826.479 -116.68 C 827.3 -116.09 827.996 -115.81 828.693 -115.52 C 828.693 -115.52 829.138 -115.46 829.561 -115.11 C 830.395 -114.51 830.805 -114.25 831.216 -113.99 C 831.216 -113.99 831.219 -114.12 831.28 -113.76 C 831.708 -113.08 832.074 -112.78 832.439 -112.47 C 833.01 -111.73 833.582 -110.99 834.635 -109.79 C 835.499 -109.05 835.88 -108.78 836.261 -108.52 C 836.261 -108.52 836.269 -108.64 836.339 -108.28 C 836.767 -107.6 837.124 -107.28 837.48 -106.96 C 837.504 -106.57 837.656 -106.25 838.355 -105.54 C 839.646 -104.05 840.518 -103.03 841.39 -102.02 C 841.587 -101.61 841.784 -101.2 842.377 -100.27 C 843.122 -99.48 843.472 -99.2 843.822 -98.916 C 843.822 -98.916 843.793 -99.03 843.875 -98.606 C 844.764 -97.096 845.572 -96.006 846.38 -94.916 C 847.033 -93.736 847.687 -92.556 848.729 -90.746 C 849.44 -89.756 849.762 -89.386 850.084 -89.026 C 850.311 -88.386 850.539 -87.746 851.121 -86.526 C 851.888 -85.316 852.3 -84.686 852.713 -84.056 C 852.713 -84.056 852.691 -84.016 852.801 -83.586 C 853.643 -81.906 854.376 -80.666 855.109 -79.416 C 855.292 -78.766 855.476 -78.126 856.028 -76.816 C 858.458 -67.6 863.787 -73.236 868.359 -73.056 C 873.602 -73.446 878.264 -73.846 883.362 -74.326 C 884.383 -74.366 884.969 -74.306 885.925 -73.886 C 894.214 -71.997 902.184 -70.723 910.036 -68.862 C 915.849 -67.484 921.509 -65.342 927.208 -63.514 C 927.18 -63.487 927.173 -63.567 927.321 -63.232 C 927.872 -62.695 928.276 -62.492 928.59 -62.303 C 928.501 -62.318 928.575 -62.497 928.711 -62.062 C 929.622 -61.406 930.396 -61.185 931.119 -61.001 C 931.07 -61.038 931.166 -61.117 931.162 -60.844 C 931.492 -60.586 931.827 -60.602 932.462 -60.61 C 932.761 -60.602 933.357 -60.524 933.357 -60.524 C 933.357 -60.524 933.413 -60.626 933.594 -60.275 C 934.905 -59.195 936.035 -58.465 937.165 -57.736 C 937.286 -57.269 937.554 -56.947 938.496 -56.364 C 940.08 -55.204 941.136 -54.451 942.193 -53.697 C 942.193 -53.697 942.243 -53.807 942.361 -53.442 C 943.266 -52.479 944.054 -51.882 944.842 -51.284 C 944.842 -51.284 944.851 -51.131 945.023 -50.923 C 945.366 -50.42 945.61 -50.245 945.927 -50.191 C 945.927 -50.191 946.213 -49.793 946.693 -49.316 C 950.158 -45.459 953.144 -42.079 956.13 -38.698 C 956.161 -38.258 956.329 -37.895 956.991 -37.166 C 957.345 -36.724 957.445 -36.071 957.143 -35.804 C 957.633 -34.846 958.425 -34.154 959.217 -33.462 M 684.291 -36.151 C 684.291 -36.151 683.741 -36.023 682.887 -35.924 C 682.337 -34.983 681.788 -34.043 681.21 -33.231 C 681.21 -33.231 681.332 -33.228 680.694 -33.004 C 680.443 -32.622 680.191 -32.24 679.272 -31.483 C 679.047 -30.721 678.822 -29.959 678.513 -28.538 C 678.513 -28.538 678.351 -27.896 677.838 -27.664 C 677.458 -27.233 677.078 -26.801 675.863 -26.069 C 675.524 -25.239 675.184 -24.41 674.825 -22.948 C 674.825 -22.948 674.815 -22.316 674.523 -22.24 C 674.523 -22.24 674.223 -22.264 673.378 -21.95 C 673.051 -21.106 672.725 -20.261 672.457 -19.467 C 672.457 -19.467 672.49 -19.394 671.573 -19.457 C 669.063 -15.757 665.026 -12.35 664.367 -8.295 C 663.057 -0.243 658.044 -0.389 652.709 1.092 C 643.729 3.586 634.984 7.102 626.207 10.398 C 625.379 10.709 625.026 12.513 624.359 14.12 C 624.359 14.12 624.2 14.595 624.297 14.597 C 624.297 14.597 624.276 14.493 623.436 14.633 C 622.309 15.503 621.182 16.374 619.558 17.365 C 619.558 17.365 619.185 17.741 618.689 17.901 C 618.406 18.126 618.179 18.405 618.032 18.755 C 618.032 18.755 618.021 18.726 617.347 18.942 C 617.026 19.303 616.705 19.665 615.718 20.247 C 615.2 20.746 614.682 21.244 613.637 21.927 C 613.332 22.17 613.095 22.475 612.983 22.87 C 612.983 22.87 612.97 22.804 612.325 23.044 C 612.038 23.418 611.751 23.792 610.761 24.483 C 609.365 26.058 607.969 27.633 605.954 29.654 C 605.723 30.118 605.493 30.582 605.39 31.036 C 605.39 31.036 605.369 30.9 604.688 31.138 C 604.409 31.551 604.131 31.964 603.34 32.605 C 603.037 32.879 602.874 33.229 602.179 34.14 C 601.507 35.381 600.835 36.621 600.268 37.874 C 600.268 37.874 600.25 37.76 599.524 38.283 C 599.776 41.473 600.029 44.662 600.45 48.412 C 600.668 48.766 600.972 48.956 601.573 49.482 C 601.573 49.482 601.706 50.012 601.834 51.114 C 607.639 54.756 611.608 53.811 612.917 47.95 C 612.917 47.95 612.967 47.417 613.292 47.371 C 613.292 47.371 613.618 47.414 614.398 47.192 C 614.739 46.765 615.079 46.337 615.234 46.104 C 615.234 46.104 615.063 45.895 615.812 45.758 C 616.073 45.314 616.335 44.87 616.687 44.573 C 616.687 44.573 616.535 44.637 617.2 44.419 C 617.429 44.001 617.657 43.582 617.92 43.288 C 617.92 43.288 617.804 43.256 618.468 43.042 C 618.693 42.624 618.917 42.205 619.192 41.902 C 619.192 41.902 619.075 41.892 619.737 41.671 C 619.965 41.251 620.193 40.832 620.323 40.505 C 620.323 40.505 620.261 40.38 621.146 40.475 C 621.76 39.568 622.375 38.662 623.045 37.862 C 623.045 37.862 622.935 37.836 623.748 37.83 C 624.322 37.31 624.897 36.79 625.526 36.399 C 625.526 36.399 625.396 36.42 626.055 36.189 C 626.295 35.775 626.535 35.362 626.772 35.071 C 626.772 35.071 626.671 35.015 627.613 35.126 C 628.591 34.166 629.569 33.206 630.605 32.353 C 630.605 32.353 630.492 32.338 631.488 32.395 C 633.242 31.782 634.989 31.142 636.753 30.56 C 642.822 28.556 648.796 25.909 655.002 24.794 C 659.899 23.913 665.093 25.138 670.138 24.94 C 671.298 24.894 672.392 22.848 674.045 21.385 C 674.458 21.22 674.739 20.912 675.545 20.131 C 675.778 19.691 676.011 19.25 676.134 18.935 C 676.134 18.935 676.258 19.043 676.76 18.903 C 676.76 18.903 677.254 18.728 678.154 18.595 C 680.383 11.3 682.613 4.006 684.885 -3.192 C 684.885 -3.192 684.793 -3.229 685.626 -3.278 C 686.248 -5.059 686.869 -6.839 687.672 -9.468 C 688.441 -10.986 689.209 -12.504 690.611 -14.54 C 691.314 -15.748 692.017 -16.955 693.192 -18.258 C 693.192 -18.258 693.655 -18.394 694.182 -17.704 C 694.829 -18.995 695.476 -20.286 696.183 -21.991 C 696.304 -22.277 696.508 -22.423 697.592 -22.638 C 697.975 -23.036 698.357 -23.433 698.505 -23.73 C 698.505 -23.73 698.391 -23.973 699.258 -24.087 C 700.723 -25.917 702.187 -27.746 703.681 -29.379 C 703.681 -29.379 703.499 -29.408 704.181 -29.532 C 704.455 -29.908 704.73 -30.285 705.647 -31.017 C 705.846 -31.483 706.045 -31.949 706.281 -32.862 C 706.281 -32.862 706.352 -33.303 706.981 -33.552 C 707.276 -33.908 707.572 -34.264 708.38 -34.65 C 708.38 -34.65 708.894 -34.681 709.687 -34.821 C 710.193 -35.411 710.699 -36.002 711.246 -37.019 C 711.246 -37.019 711.382 -37.422 711.944 -37.457 C 711.944 -37.457 712.507 -37.471 713.298 -37.512 C 713.889 -37.977 714.48 -38.442 716.045 -38.844 C 721.553 -41.294 726.889 -44.529 732.61 -46.009 C 741.101 -48.207 749.832 -49.478 758.523 -50.565 C 769.08 -51.886 779.156 -49.53 788.759 -44.571 C 790.56 -43.642 792.668 -43.416 794.867 -41.88 C 796.911 -41.32 798.956 -40.76 801.073 -39.205 C 803.595 -37.707 806.116 -36.21 809.194 -34.583 C 809.572 -34.401 809.802 -34.09 810.088 -32.931 C 810.441 -32.633 810.794 -32.334 811.219 -31.086 C 812.414 -30.455 813.609 -29.823 815.424 -29.003 C 815.621 -28.912 815.818 -28.82 816.256 -28.21 C 816.521 -27.917 816.844 -27.775 817.413 -27.338 C 817.413 -27.338 817.5 -26.855 817.724 -25.929 C 822.723 -21.499 824.265 -21.851 827.435 -28.659 C 827.435 -28.659 827.564 -29.171 827.48 -29.192 C 827.48 -29.192 827.5 -29.102 827.972 -29.242 C 827.972 -29.242 828.457 -29.303 829.376 -29.358 C 830.554 -32.614 833.311 -36.388 832.579 -39.017 C 831.086 -44.385 827.497 -48.815 820.518 -48.723 C 819.454 -49.522 818.391 -50.322 817.253 -51.461 C 817.253 -51.461 817.259 -51.81 817.054 -52.672 C 816.63 -53.008 816.206 -53.343 815.903 -53.542 C 815.903 -53.542 815.751 -53.448 815.876 -54.485 C 814.617 -55.091 813.359 -55.697 812.215 -56.543 C 812.215 -56.543 812.156 -56.28 811.932 -57.249 C 810.329 -57.907 808.725 -58.565 807.233 -59.259 C 807.233 -59.259 807.242 -59.134 806.869 -59.911 C 806.117 -60.147 805.365 -60.382 804.717 -60.604 C 804.717 -60.604 804.658 -60.51 804.609 -61.529 C 802.112 -62.595 799.615 -63.662 796.896 -65.552 C 796.335 -66.746 795.738 -69.001 795.22 -68.979 C 783.263 -68.488 772.739 -77.256 760.307 -74.706 C 750.707 -72.746 740.794 -72.63 731.058 -71.35 C 729.853 -71.192 728.883 -68.915 727.264 -67.529 C 727.264 -67.529 726.716 -67.509 725.673 -67.559 C 722.37 -67.648 718.853 -68.208 716.871 -63.411 C 712.969 -62.947 708.965 -62.666 707.471 -56.889 C 707.168 -56.634 706.826 -56.53 705.649 -56.498 C 705.057 -56.002 704.464 -55.507 703.89 -55.144 C 703.89 -55.144 704.006 -55.096 703.036 -55.176 C 702.075 -54.145 701.114 -53.113 699.895 -51.552 C 699.615 -51.262 699.283 -51.107 698.042 -51.039 C 697.064 -50.068 696.086 -49.097 695.104 -48.304 C 695.104 -48.304 695.265 -48.272 694.575 -47.974 C 694.342 -47.514 694.109 -47.054 693.819 -46.117 C 693.819 -46.117 693.674 -45.663 693.184 -45.617 C 693.184 -45.617 692.693 -45.572 691.802 -45.55 C 690.762 -44.221 689.722 -42.893 688.36 -40.867 C 687.594 -39.876 686.828 -38.886 685.446 -37.461 C 685.213 -37.003 684.98 -36.546 684.888 -36.127 C 684.888 -36.127 684.843 -36.277 684.291 -36.151 Z" id="path3" style="stroke-width: 1.315;"/>
    <path fill="#01122c" opacity="1" stroke="none" d="M 285.331 -166.06 C 285.515 -166.18 285.644 -165.52 285.579 -165.19 C 285.391 -165.22 285.269 -165.57 285.331 -166.06 Z" id="path402" style="stroke-width: 1.315;"/>
    <path fill="#2c1c2a" opacity="1" stroke="none" d="M 319.761 121.864 C 320.011 121.62 320.351 121.794 320.788 122.369 C 320.512 122.691 320.167 122.528 319.761 121.864 Z" id="path503" style="stroke-width: 1.315;"/>
    <g style="opacity:1;fill:none;fill-rule:nonzero;stroke:none;stroke-width:0;stroke-linecap:butt;stroke-linejoin:miter;stroke-miterlimit:10;stroke-dasharray:none" transform="matrix(2.674117, 0, 0, 2.78029, 676.747986, 38.601852)" id="g5">
      <path d="M 75.546,78.738 H 14.455 C 6.484,78.738 0,72.254 0,64.283 V 25.716 C 0,17.746 6.485,11.261 14.455,11.261 h 61.091 c 7.97,0 14.454,6.485 14.454,14.455 v 38.567 c 0,7.971 -6.484,14.455 -14.454,14.455 z M 14.455,15.488 c -5.64,0 -10.228,4.588 -10.228,10.228 v 38.567 c 0,5.64 4.588,10.229 10.228,10.229 h 61.091 c 5.64,0 10.228,-4.589 10.228,-10.229 V 25.716 c 0,-5.64 -4.588,-10.228 -10.228,-10.228 H 14.455 Z" style="opacity:1;fill:#01122c;fill-rule:nonzero;stroke:none;stroke-width:1;stroke-linecap:butt;stroke-linejoin:miter;stroke-miterlimit:10;stroke-dasharray:none" stroke-linecap="round" id="path1"/>
      <path d="M 11.044,25.917 C 21.848,36.445 32.652,46.972 43.456,57.5 45.47,59.462 48.561,56.378 46.544,54.412 35.74,43.885 24.936,33.357 14.132,22.83 12.118,20.867 9.027,23.952 11.044,25.917 Z" style="opacity:1;fill:#01122c;fill-rule:nonzero;stroke:none;stroke-width:1;stroke-linecap:butt;stroke-linejoin:miter;stroke-miterlimit:10;stroke-dasharray:none" stroke-linecap="round" id="path2-3"/>
      <path d="M 46.544,57.5 C 57.348,46.973 68.152,36.445 78.956,25.918 80.972,23.953 77.883,20.867 75.868,22.83 65.064,33.357 54.26,43.885 43.456,54.412 c -2.016,1.965 1.073,5.051 3.088,3.088 z" style="opacity:1;fill:#1d1d1b;fill-rule:nonzero;stroke:none;stroke-width:1;stroke-linecap:butt;stroke-linejoin:miter;stroke-miterlimit:10;stroke-dasharray:none" stroke-linecap="round" id="path3-6"/>
      <path d="M 78.837,64.952 C 71.648,58.134 64.458,51.317 57.269,44.499 c -2.039,-1.933 -5.132,1.149 -3.088,3.088 7.189,6.818 14.379,13.635 21.568,20.453 2.039,1.933 5.132,-1.15 3.088,-3.088 z" style="opacity:1;fill:#1d1d1b;fill-rule:nonzero;stroke:none;stroke-width:1;stroke-linecap:butt;stroke-linejoin:miter;stroke-miterlimit:10;stroke-dasharray:none" stroke-linecap="round" id="path4-7"/>
      <path d="m 14.446,68.039 c 7.189,-6.818 14.379,-13.635 21.568,-20.453 2.043,-1.938 -1.048,-5.022 -3.088,-3.088 -7.189,6.818 -14.379,13.635 -21.568,20.453 -2.043,1.938 1.048,5.023 3.088,3.088 z" style="opacity:1;fill:#1d1d1b;fill-rule:nonzero;stroke:none;stroke-width:1;stroke-linecap:butt;stroke-linejoin:miter;stroke-miterlimit:10;stroke-dasharray:none" stroke-linecap="round" id="path5-5"/>
    </g>
  </g>
</svg>