<?xml version="1.0" encoding="UTF-8" standalone="no"?>
<svg
   version="1.1"
   id="Layer_1"
   x="0px"
   y="0px"
   width="100%"
   viewBox="0 0 1024 1024"
   enable-background="new 0 0 1024 1024"
   xml:space="preserve"
   sodipodi:docname="logo-mail.svg"
   inkscape:export-filename="logo-mail-simple.svg"
   inkscape:export-xdpi="48"
   inkscape:export-ydpi="48"
   inkscape:version="1.4.2 (ebf0e940d0, 2025-05-08)"
   xmlns:inkscape="http://www.inkscape.org/namespaces/inkscape"
   xmlns:sodipodi="http://sodipodi.sourceforge.net/DTD/sodipodi-0.dtd"
   xmlns="http://www.w3.org/2000/svg"
   xmlns:svg="http://www.w3.org/2000/svg"><defs
   id="defs743" /><sodipodi:namedview
   id="namedview743"
   pagecolor="#ffffff"
   bordercolor="#000000"
   borderopacity="0.25"
   inkscape:showpageshadow="2"
   inkscape:pageopacity="0.0"
   inkscape:pagecheckerboard="0"
   inkscape:deskcolor="#d1d1d1"
   inkscape:zoom="0.1850586"
   inkscape:cx="-1129.372"
   inkscape:cy="494.43799"
   inkscape:window-width="1042"
   inkscape:window-height="328"
   inkscape:window-x="26"
   inkscape:window-y="23"
   inkscape:window-maximized="0"
   inkscape:current-layer="Layer_1" />

<path
   fill="#f34329"
   opacity="1"
   stroke="none"
   d="m 166.01107,402.27995 c 0.0587,-2.82563 0.11733,-5.65121 0.16446,-9.69958 -0.0645,-6.71552 -0.11734,-12.20834 -0.17028,-17.70116 0.0651,-5.08467 0.13024,-10.16939 0.16133,-16.21024 -0.0341,-0.9562 -0.16356,-1.61751 -0.16357,-1.61751 0.0712,-3.72203 0.14227,-7.444 0.19936,-12.41189 -0.081,-34.59374 -0.148,-67.94154 -0.21498,-101.28936 0.0653,-1.4844 0.13073,-2.96879 0.16308,-5.33144 -0.0331,-0.87825 -0.16156,-1.53605 -0.16156,-1.53605 0.0647,-3.27398 0.12935,-6.54792 0.17638,-10.98645 -0.0713,-3.04577 -0.1249,-4.927 -0.17849,-6.8082 0.0608,-0.63143 0.12162,-1.26285 0.17013,-2.96105 -0.0616,-4.29238 -0.11077,-7.51797 -0.15992,-10.74357 0.0657,-2.37708 0.13143,-4.75416 0.19015,-8.24765 0.84585,-4.86507 1.69868,-8.61375 2.55154,-12.3624 3.61722,-3.36945 6.87246,-7.40008 10.90792,-10.00555 38.2264,-24.6809 76.6283,-49.04096 114.87902,-73.67777 10.79411,-6.952338 21.14923,-7.081461 32.0607,-0.28384 39.30081,24.48364 78.72646,48.7307 118.08906,73.09749 9.17638,5.68052 12.62287,14.74828 12.64382,25.77492 0.0704,36.98619 0.1852,73.97235 0.22081,110.95859 0.0568,58.90585 0.16372,117.81221 -0.0506,176.71706 -0.0236,6.47338 1.81891,10.23634 7.19478,12.62008 4.2361,1.87838 8.24939,4.34934 13.59396,7.21866 -43.53182,28.83322 -86.43678,57.25121 -130.12362,86.18708 9.65918,6.12533 18.61159,11.85405 27.60929,17.49785 19.79586,12.4169 39.7047,24.62654 59.34794,37.3212 3.92965,2.53958 6.55805,2.12819 10.18277,-0.22503 54.00871,-35.06437 108.09347,-69.99068 162.1601,-104.94984 0.54181,-0.35035 1.11665,-0.65429 1.61681,-1.06506 8.71886,-7.1603 16.93095,-8.45739 25.7282,0.59705 4.30499,4.43091 10.22979,7.00596 15.79089,10.66396 -0.66463,0.58299 -1.31518,1.31151 -2.09069,1.81144 -62.05144,40.00278 -124.1321,79.95236 -186.09456,120.11696 -2.22329,1.44118 -4.6686,4.98107 -4.68528,7.56053 -0.26674,41.32312 -0.15605,82.64912 -0.11783,123.97446 6.1e-4,0.67077 0.1674,1.34129 0.36373,2.81622 2.74682,-1.568 5.30845,-2.87258 7.72891,-4.4349 76.64235,-49.47209 153.25451,-98.99953 229.95584,-148.36357 3.45646,-2.22452 4.36429,-4.72245 4.31661,-8.75427 -0.17687,-14.95112 -0.0704,-29.90626 -0.0704,-46.78457 10.65524,10.56646 20.05074,19.8284 29.35231,29.20029 0.85076,0.85717 1.51269,2.39712 1.5669,3.65533 0.786,18.24552 0.39327,37.42067 -16.48308,48.27422 -40.97282,26.35025 -81.80917,52.95134 -122.67258,79.50192 -40.49776,26.31315 -80.97093,52.67106 -121.43354,79.04795 -10.53496,6.8675 -20.753,5.60257 -30.86698,-1.03572 C 419.7912,826.56247 400.28802,813.5983 380.63228,800.91313 316.9749,759.83124 253.2253,718.91759 189.62016,677.74074 c -6.77577,-4.38652 -13.52694,-9.32936 -19.05562,-15.35036 -7.33857,-7.99213 -3.55359,-18.99147 -4.37464,-30.00031 -0.0673,-16.35138 -0.11898,-31.43339 -0.17082,-46.51534 0.068,-3.72498 0.13592,-7.44993 0.18685,-12.41527 -0.077,-7.19236 -0.13699,-13.14433 -0.19698,-19.09629 0.0698,-3.274 0.13944,-6.54803 0.19279,-11.06086 -0.0685,-15.40903 -0.12074,-29.57917 -0.17288,-43.7493 0.0686,-1.92417 0.13728,-3.84829 0.18724,-6.87869 -0.0755,-2.55508 -0.13231,-4.00404 -0.18915,-5.45295 0.067,-2.37208 0.13392,-4.7442 0.18503,-8.33442 -0.0768,-15.84409 -0.13795,-30.47 -0.19904,-45.09594 0.0641,-1.04943 0.12818,-2.0989 0.17715,-4.29925 -0.0698,-9.83789 -0.12428,-18.52483 -0.17892,-27.21181 m 34.38981,243.0918 c 0.25454,0.38877 0.59954,0.55193 1.78337,1.00364 6.40901,4.32455 12.76943,8.73687 19.23451,12.96019 65.9677,43.09374 131.95053,86.16027 197.94063,129.21351 2.26705,1.47902 4.6551,2.73936 7.93873,4.65783 0,-3.47267 8.4e-4,-5.88338 -1.5e-4,-8.29401 -0.0135,-32.41633 -0.16756,-64.8339 0.0926,-97.24764 0.045,-5.60906 -1.74174,-8.49431 -6.07472,-11.18921 -36.941,-22.97584 -73.68342,-46.32852 -110.64417,-69.26642 -10.14188,-6.29409 -14.74465,-14.67342 -14.60484,-27.70886 0.4993,-46.56384 0.25904,-93.13734 0.25931,-139.70717 2.7e-4,-49.76591 0.009,-99.53212 -0.20237,-149.29713 -0.0126,-2.90061 -1.17791,-7.24597 -3.11703,-8.46904 -29.54801,-18.63658 -59.31469,-36.86427 -89.36626,-55.70471 -0.68172,-0.30413 -1.36343,-0.60828 -2.61389,-1.4965 -0.49,-0.17544 -0.98,-0.35088 -1.78196,-1.12892 -4.59195,0.6129 -2.35445,4.5121 -2.35954,6.73248 -0.15786,68.93349 -0.1603,137.86742 -0.17504,206.80125 -0.0141,66.42281 -0.0572,132.84571 0.12301,199.26795 0.008,2.78648 2.14694,5.5662 3.33908,8.25475 0,0 -0.0753,0.0687 0.22868,0.61801 M 327.26557,409.77859 c 0,52.16675 0,104.33347 0,157.81855 2.84165,-1.67526 4.64551,-2.64181 6.36231,-3.76526 29.45854,-19.27672 58.86548,-38.64722 88.4058,-57.77492 3.88092,-2.51291 5.38992,-5.23437 5.38037,-10.23948 -0.17103,-89.45617 -0.15024,-178.9128 -0.18835,-268.36935 -8.1e-4,-1.91348 -0.20965,-3.82685 -0.32108,-5.73354 -0.96542,0.0558 -1.45166,-0.0738 -1.75884,0.12413 -31.73336,20.45286 -63.47696,40.88756 -95.1024,61.53566 -1.55004,1.012 -2.92189,3.9017 -2.92589,5.92042 -0.0787,39.70422 0.0578,79.40893 0.14808,120.48381 M 232.16364,178.67465 c -6.91415,4.48598 -13.82829,8.97196 -21.09464,13.68644 1.11244,0.95166 1.53823,1.42022 2.04513,1.73462 32.22194,19.98695 64.4238,40.01273 96.75522,59.78884 1.66193,1.01656 4.87918,0.71557 6.62871,-0.37672 18.54552,-11.57865 36.96202,-23.40228 55.36912,-35.24082 13.42051,-8.63139 26.77395,-17.38588 40.73646,-26.46199 -1.67668,-1.22888 -2.48721,-1.90775 -3.36699,-2.45543 -31.83555,-19.81859 -63.64549,-39.68659 -95.6059,-59.26494 -1.73735,-1.06427 -5.19097,-0.53145 -7.08477,0.67112 -24.62128,15.63487 -49.10481,31.52563 -74.38234,47.91888 z"
   id="path2"
   style="stroke-width:1.31478" />
<path
   fill="#378ec6"
   opacity="1"
   stroke="none"
   d="m 961.89263,250.5025 c 0.35036,0.10276 0.58995,0.33837 0.76746,1.43657 0.5598,1.36983 1.0709,2.01001 1.49872,2.68965 -0.0833,0.0395 -0.11355,-0.15479 -0.0303,0.20844 0.43868,0.65827 0.79396,0.95333 1.10042,1.24255 -0.0492,-0.005 -0.0126,-0.10304 0,0.34473 0.50605,1.0738 0.99785,1.69986 1.41129,2.32082 -0.0782,-0.005 -0.0177,-0.16204 -0.0606,0.30205 0.44801,1.12193 0.9393,1.77976 1.43059,2.43759 0,-3e-5 -0.13752,0.0547 -0.21044,0.49511 1.29206,2.84784 2.65692,5.25525 3.97409,7.72156 -0.0479,0.0589 -0.14446,-0.0577 -0.20767,0.47298 0.87383,2.47109 1.81073,4.41149 2.69844,6.4036 -0.0492,0.0518 -0.13109,-0.0677 -0.18459,0.40309 0.31681,1.57381 0.68736,2.67688 1.11897,4.07571 0.0618,0.29571 0.10345,0.9002 -0.0732,1.34522 0.38443,2.01988 0.94549,3.59483 1.45974,5.19373 -0.0467,0.024 -0.024,-0.0856 -0.0543,0.52576 -0.0379,12.59523 0.15266,24.58501 -0.15052,36.55999 -0.11733,4.64224 -1.35085,9.25116 -1.93159,13.94786 0.1442,0.0726 0.10597,0.41533 -0.44095,0.1805 -1.7016,-0.29169 -2.85576,-0.34851 -4.27349,-0.44038 -0.26368,-0.0349 -0.78298,-0.15571 -0.78298,-0.15571 0,0 0,0.10029 -0.024,-0.15136 -0.0202,-0.25173 -0.0934,-0.74947 -0.21966,-1.12779 -0.53759,-0.65049 -0.94889,-0.92266 -1.25837,-1.2023 0.10219,-0.007 0.0744,0.21194 -0.0404,-0.175 -0.54301,-0.62591 -0.97185,-0.86486 -1.30241,-1.15885 0.0984,-0.0551 0.15708,0.17632 0.0265,-0.2289 -0.83446,-0.70722 -1.53847,-1.00928 -2.53833,-1.36704 -0.29586,-0.0556 -0.8824,-0.19619 -0.8824,-0.19619 0,0 -0.053,0.14054 -0.10472,-0.19083 -0.44171,-0.56975 -0.83143,-0.80808 -1.22116,-1.04646 0,0 0,0.10207 -0.0366,-0.14062 -0.0341,-0.24265 -0.10094,-0.69862 -0.20906,-1.08155 -0.49596,-0.68662 -0.88442,-0.99027 -1.18773,-1.2733 0.0845,0.0206 0.0202,0.19636 -0.12111,-0.20597 -0.85288,-0.69695 -1.56471,-0.99165 -2.57643,-1.31964 -0.2999,-0.0333 -0.89477,-0.13964 -0.89477,-0.13964 0,0 -0.0202,0.11016 -0.19518,-0.26055 -1.3072,-1.06716 -2.43979,-1.76369 -3.57238,-2.46021 0,0 -0.053,0.10605 -0.25952,-0.28496 -3.85651,-2.34619 -7.50599,-4.30134 -11.15559,-6.25645 0,0 -0.56798,-0.11934 -1.07253,-0.58657 -4.78419,-2.30867 -9.06385,-4.15006 -13.06458,-6.27626 -10.05036,-5.43754 -20.96951,-6.26302 -32.0445,-5.00256 -3.17471,0.3613 -6.2138,2.1291 -9.85531,3.39592 -11.54859,-0.2656 -19.98168,6.3573 -28.6672,12.29092 0,0 0.10194,0.039 -0.25882,0.0599 -0.95401,0.48717 -1.54734,0.95347 -2.14074,1.41977 0,0 0.0308,0.0262 -0.35792,0.10646 -1.4367,0.9229 -2.48489,1.76562 -3.53309,2.60832 -1.07561,0.70674 -2.1513,1.4135 -3.74254,2.58231 -0.80162,0.81277 -1.08755,1.16354 -1.37347,1.51432 -0.3774,0.0241 -0.69082,0.19041 -1.32272,0.88477 -0.72908,0.6392 -1.10511,0.71136 -1.91343,0.72186 -0.78354,0.53601 -1.16417,0.95276 -1.45163,1.29271 0.0932,-0.0767 0.23687,0.12386 -0.12698,0.19903 -0.63553,0.50072 -0.90713,0.92624 -1.17873,1.35174 -7e-5,0 -0.0879,-0.13958 -0.3459,-0.0143 -0.48152,0.57568 -0.70507,1.02601 -0.92868,1.47634 7e-5,4e-5 -0.0413,0.47655 -0.35578,0.86437 -0.5559,0.75586 -0.79738,1.12385 -1.03887,1.49186 0,0 -0.43809,0.0629 -1.01425,0.23068 -0.84397,0.6234 -1.1118,1.07904 -1.37962,1.53472 0,0 -0.0368,0.51568 -0.32204,0.9229 -0.61326,0.66948 -0.83443,1.01293 -0.94878,1.43751 0,0 -0.0804,-0.007 -0.283,0.0799 -0.20275,0.0874 -0.6222,0.1044 -1.16402,0.0252 -1.63335,-0.0726 -2.72491,-0.066 -4.08667,-0.1203 -0.27021,-0.0607 -0.7853,-0.27597 -0.7853,-0.27597 0,0 -0.0401,-0.49478 -0.20607,-1.05688 -0.50878,-0.83363 -0.85152,-1.10516 -1.19435,-1.37674 -0.73209,-0.6265 -1.4641,-1.25302 -2.49991,-2.57508 -0.70437,-0.95347 -1.10494,-1.21146 -1.74663,-1.48935 -0.24096,-0.0199 -0.71562,-0.11851 -0.71562,-0.11851 0,0 -0.0633,-0.44586 -0.25711,-1.09435 -0.6929,-0.9316 -1.19198,-1.21467 -2.01617,-1.60897 -1.0927,-0.61423 -1.86028,-1.11725 -2.62787,-1.62027 0,0 -0.0944,0.11029 -0.142,-0.20744 -0.44432,-0.55812 -0.84114,-0.79855 -1.23787,-1.03902 0,0 -0.0113,0.10372 -0.1008,-0.21717 -0.45695,-0.55173 -0.8248,-0.78254 -1.19274,-1.0134 0,0 -0.008,0.004 -0.23147,-0.3427 -1.31456,-1.07502 -2.40565,-1.80366 -3.49667,-2.53235 0,0 -0.0414,0.10592 -0.21615,-0.27049 -1.31549,-1.07418 -2.45617,-1.77192 -3.59684,-2.46966 -0.48553,-0.42068 -0.97097,-0.84133 -2.08632,-1.66601 -32.57245,-19.24909 -64.15168,-19.03153 -95.33941,1.72531 -0.62236,0.28842 -1.24464,0.57681 -2.39764,1.25398 -0.79478,0.75268 -1.05891,1.11654 -1.32304,1.48045 0,0 0.139,-0.008 -0.24271,-0.007 -0.96072,0.48382 -1.53973,0.96697 -2.11873,1.45017 0,0 0.0153,0.0123 -0.30541,0.10769 -0.57954,0.46974 -0.83843,0.8435 -1.09732,1.21727 0,-4e-5 0.10345,-0.0332 -0.28577,0.0489 -1.34952,0.97684 -2.30985,1.8716 -3.27019,2.76633 -1.18796,0.99507 -2.37593,1.9901 -4.07451,3.53063 -0.74903,0.98495 -0.9876,1.42447 -1.22608,1.86391 0,0 0.10813,-0.0904 -0.31402,0.0343 -1.53526,1.41617 -2.6483,2.70757 -3.76142,3.99903 -0.33174,0.0459 -0.58577,0.22311 -1.13799,0.99632 -0.60865,0.92446 -0.84127,1.38436 -1.07391,1.84431 0,0 0.12201,10e-4 -0.20775,0.0692 -0.58294,0.47529 -0.83605,0.88259 -1.08909,1.2899 -0.41761,0.11071 -0.71893,0.37666 -1.31626,1.34932 -1.18511,1.71639 -1.95802,2.88149 -2.73092,4.04661 -0.37117,0.1325 -0.61997,0.39936 -1.11288,1.34113 -1.02564,1.76252 -1.68466,2.98471 -2.34366,4.20688 0,0 0.0975,0.0507 -0.26452,0.27581 -2.48681,4.03477 -4.61154,7.84456 -7.10121,11.97414 -0.62512,1.24436 -0.88533,2.16903 -1.09725,3.03527 0.0483,-0.0584 0.14215,0.0608 -0.33074,0.17846 -1.07807,2.32612 -1.68325,4.53454 -2.2578,6.72927 0.0305,-0.0137 0.0609,0.0504 -0.35376,0.24084 -2.32602,8.70677 -5.03754,17.12535 -5.93165,25.76571 -0.96133,9.28972 -0.21716,18.78759 -0.21716,28.61863 -29.01903,0 -57.76137,0.16871 -86.50004,-0.11277 -7.66977,-0.0751 -15.32326,-1.59158 -22.99658,-2.2853 -1.30698,-0.11824 -2.6766,0.57982 -4.46371,0.85634 -3.4957,-1.39853 -6.545,-2.75258 -9.59426,-4.10667 0,0 -0.0463,0.10167 -0.27043,-0.25401 -2.15188,-1.59229 -4.07959,-2.82893 -6.00732,-4.06556 -0.10156,-0.43482 -0.34417,-0.73558 -1.23948,-1.32142 -1.60144,-1.25791 -2.69106,-2.0967 -3.78073,-2.93547 -0.0553,-0.38185 -0.2416,-0.66003 -0.98902,-1.22125 -0.82947,-0.64701 -1.22916,-0.90731 -1.62885,-1.16759 0,0 0.004,0.12578 -0.0632,-0.22872 -0.43951,-0.62035 -0.81253,-0.88619 -1.1855,-1.15208 0,0 -0.015,0.12564 -0.0834,-0.22684 -0.43011,-0.66245 -0.79182,-0.97237 -1.15351,-1.28229 -0.0264,-0.40408 -0.18955,-0.72642 -0.84355,-1.36701 -0.354,-0.39994 -0.49773,-1.02772 -0.53299,-1.46246 -0.5516,-1.00771 -1.06792,-1.58071 -1.49544,-2.18843 0.0887,-0.0348 0.10156,0.16972 0.0142,-0.20994 -0.4816,-0.64807 -0.87594,-0.91648 -1.17814,-1.17593 0.0921,0.01 0.0363,0.20054 -0.0502,-0.17511 -0.45105,-0.67913 -0.8156,-0.98253 -1.13028,-1.28183 0.0498,0.004 0.0154,0.10605 0.005,-0.34245 -0.51093,-1.067 -1.01159,-1.68551 -1.4358,-2.29096 0.0764,0.0137 -0.008,0.15458 0.0799,-0.36487 -0.79488,-1.55486 -1.67676,-2.59025 -2.54645,-3.65507 0.0126,-0.0294 0.0491,0.018 0.0669,-0.4397 -0.45294,-1.12854 -0.92368,-1.79937 -1.37355,-2.42208 0.0209,0.0481 -0.0703,0.0866 0.0197,-0.45544 -3.03975,-12.31969 -6.00369,-24.14233 -4.77433,-36.59127 0.64141,-6.49496 1.56794,-12.95671 2.35675,-19.36131 -0.009,0.0721 -0.13604,0.0258 0.24003,-0.16863 0.56233,-1.03605 0.74856,-1.87775 0.93426,-2.64014 -5.4e-4,0.0793 -0.13741,0.024 0.25824,-0.13899 0.58951,-1.00766 0.78341,-1.85242 0.94816,-2.62897 -0.0291,0.0682 -0.12948,-0.0356 0.27976,-0.0937 0.6651,-1.32757 0.92095,-2.59711 1.17684,-3.8666 0,0 0.11859,-0.51619 0.44166,-1.06378 0.98487,-1.79475 1.64662,-3.04188 2.3084,-4.28897 3e-5,0 -0.0886,-0.0425 0.18262,-0.1527 0.46038,-0.51217 0.6495,-0.91403 0.83862,-1.31595 -3e-5,0 0.0884,-0.0137 0.37841,-0.30398 1.0041,-1.4161 1.71822,-2.54175 2.43229,-3.66738 4e-5,0 -0.10093,-0.0704 0.19983,-0.14463 0.56322,-0.4793 0.82565,-0.88438 1.08809,-1.28948 1.10106,-1.07439 2.20212,-2.14879 3.77657,-3.76061 0.77803,-0.92219 1.08263,-1.30696 1.38718,-1.69177 0.99888,-0.79157 1.9978,-1.5831 3.49874,-2.80179 0.84229,-0.66784 1.10565,-0.98399 1.29211,-1.37566 1.09764,-0.65688 2.19531,-1.31377 3.95219,-2.42609 4.15533,-2.19763 7.65142,-3.93979 11.43534,-5.33661 1.3014,-0.60182 2.31491,-1.54901 3.2826,-2.69051 -0.0458,-0.19432 0.1669,-0.52238 0.59528,-0.77054 2.63713,-8.83755 4.87209,-17.41908 7.04084,-26.02035 0.80248,-3.18278 1.44902,-6.41193 2.22172,-9.6067 0.0551,0.0137 0.0844,0.13167 0.47659,-0.0477 0.59833,-1.03101 0.80439,-1.8828 0.99075,-2.7252 -0.0197,0.01 -0.0385,-0.0356 0.32647,-0.16701 0.59983,-0.89959 0.83478,-1.6679 1.08947,-2.38843 0.0198,0.0478 -0.0766,0.0529 0.23603,-0.10495 0.51993,-0.59169 0.7273,-1.02548 0.93615,-1.36026 0.001,0.0989 -0.17719,0.0589 0.20075,-0.10701 0.64076,-0.96869 0.9035,-1.77144 1.16625,-2.57421 -0.005,-0.41593 0.12503,-0.77385 1.00453,-1.34891 0.84864,-0.76468 1.08331,-1.25417 1.27648,-1.78201 -0.0415,-0.0384 -0.051,-0.15628 0.3103,-0.17843 0.64719,-0.7065 0.93307,-1.39086 1.219,-2.07522 0.75864,-1.07585 1.51734,-2.15168 2.70038,-3.76784 0.67372,-0.91296 0.92311,-1.28558 1.17252,-1.65817 0.41887,-0.0544 0.75307,-0.26639 1.41428,-1.09132 0.66206,-0.84761 0.91236,-1.23972 1.16267,-1.63185 0,2e-5 -0.10396,-0.001 0.22189,-0.0763 0.57254,-0.47484 0.81927,-0.87444 1.06591,-1.27405 0,-3e-5 -0.10383,0.0617 0.29154,-0.0293 1.35052,-0.98888 2.30566,-1.88674 3.26079,-2.78462 0.43028,-0.023 0.80128,-0.19588 1.62929,-0.9665 1.55593,-1.30828 2.59562,-2.16887 3.63527,-3.02945 0,0 -0.11116,-0.0123 0.34075,-0.10043 3.12437,-1.8712 5.79682,-3.65402 8.46925,-5.43686 0,-1e-5 0.57997,-0.0826 1.33223,-0.16733 3.39695,-0.87391 6.04162,-1.66318 8.94942,-2.09457 1.20968,0.81291 2.1868,1.72348 3.09823,1.65165 8.18144,-0.64463 16.35126,-1.46202 24.81593,-2.19737 0.29146,0.0312 0.85514,0.20405 1.17988,0.56576 3.17338,0.97448 6.02774,2.11142 8.86909,2.07402 4.00036,-0.0526 5.62933,-4.25245 3.53025,-8.54586 2.50768,-6.56634 4.97701,-12.64159 7.44633,-18.71679 0.39943,-0.56013 0.79886,-1.12024 1.55906,-2.32953 0.99661,-1.9289 1.63237,-3.20864 2.26819,-4.4884 0,2e-5 -0.0852,-0.0297 0.25621,-0.26104 1.05358,-1.48126 1.7658,-2.73124 2.47803,-3.98126 7.7147,-8.30092 15.4295,-16.60186 23.75217,-25.43392 1.66971,-1.42934 2.73169,-2.32755 3.79367,-3.22577 0.39789,0.01 0.73864,-0.13765 1.54812,-0.89196 2.3743,-1.80766 4.22289,-3.164 6.07141,-4.52035 0,0 -0.10914,-0.0345 0.35615,-0.10029 4.46401,-2.29125 8.46274,-4.51682 12.46141,-6.74238 0,0 0.50307,-0.0232 1.11827,-0.19115 1.61903,-0.49735 2.62296,-0.82672 3.93012,-0.79649 1.49683,0.24894 2.75973,0.3758 3.87376,-0.007 23.34705,-8.03182 46.83493,-8.75583 70.50894,-1.8156 4.57227,1.34041 9.1946,2.4796 13.78266,3.6529 -0.0114,-0.0586 0.0927,-0.0996 0.1942,0.38333 4.64844,2.45218 9.19554,4.42151 13.72853,6.45355 -0.0141,0.0628 -0.12929,0.0948 0.0314,0.51742 0.934,0.65934 1.7073,0.8961 2.45031,1.11998 -0.0301,-0.0123 0.029,-0.0481 0.026,0.45737 1.26659,1.00379 2.53602,1.50213 3.79214,2.05621 -0.0134,0.0558 -0.11784,0.0756 0.0281,0.48287 0.87562,0.69211 1.60533,0.97699 2.33496,1.26184 0.40442,0.005 0.74911,0.16486 1.17417,1.25319 1.86661,1.87268 3.593,2.96878 5.31939,4.06486 0,0 -0.12799,0.0771 -0.0154,0.37493 0.54265,0.51738 0.97258,0.73702 1.41952,0.91602 0.0169,-0.0407 0.0968,-0.0617 0.11355,0.29966 0.36231,0.63261 0.70775,0.90393 1.05328,1.17521 0,-2e-5 -0.15071,0.0748 -0.0264,0.37707 0.8208,0.58892 1.51724,0.87564 2.21375,1.16233 0,0 0.44502,0.06 0.86854,0.40666 0.83382,0.60501 1.24396,0.86338 1.65416,1.12174 0,0 0.003,-0.13167 0.0647,0.2327 0.42777,0.67345 0.7934,0.98252 1.15901,1.29157 0.57115,0.73823 1.14223,1.47645 2.19597,2.68082 0.86369,0.73448 1.24471,1.00277 1.62582,1.27109 0,0 0.008,-0.12797 0.0784,0.23056 0.42746,0.68108 0.78422,1.00363 1.14099,1.32616 0.024,0.38791 0.17587,0.70306 0.87501,1.41972 1.29084,1.48933 2.16254,2.50439 3.03425,3.51947 0.19713,0.41038 0.39434,0.82074 0.98698,1.74459 0.74541,0.79265 1.09539,1.07178 1.44546,1.35094 0,0 -0.0291,-0.1092 0.0526,0.31585 0.88956,1.51147 1.69735,2.59789 2.50522,3.68432 0.65346,1.18123 1.30686,2.36247 2.34905,4.17138 0.71083,0.99211 1.03294,1.35659 1.35506,1.72106 0.22725,0.64189 0.45456,1.28375 1.03658,2.49854 0.76727,1.20598 1.1798,1.839 1.59238,2.47203 0,0 -0.0217,0.0352 0.0878,0.47012 0.84222,1.67919 1.57493,2.92345 2.30771,4.16771 0.18381,0.64656 0.36755,1.29314 0.9199,2.5992 2.42984,9.2175 7.75854,3.58166 12.33088,3.76049 5.24238,-0.38801 9.90513,-0.78674 15.00297,-1.27441 1.02095,-0.034 1.6068,0.021 2.56251,0.44228 8.28925,1.89221 16.25924,3.16601 24.11118,5.02708 5.81298,1.37781 11.47257,3.51968 17.17243,5.34792 -0.028,0.0267 -0.0353,-0.0529 0.11216,0.28177 0.55112,0.53749 0.95494,0.74032 1.26958,0.92864 -0.0892,-0.0145 -0.0153,-0.19317 0.12125,0.24163 0.91036,0.6557 1.68411,0.87661 2.40796,1.06048 -0.0498,-0.037 0.0468,-0.11578 0.0426,0.15747 0.33051,0.25744 0.66517,0.24161 1.29962,0.23349 0.29979,0.008 0.89519,0.0859 0.89519,0.0859 0,0 0.0559,-0.10194 0.23686,0.24931 1.3111,1.08063 2.44123,1.81007 3.57144,2.53952 0.12074,0.46629 0.38841,0.78828 1.33104,1.37185 1.58393,1.15931 2.64021,1.91282 3.69642,2.66632 0,0 0.0503,-0.1092 0.16818,0.25592 0.90573,0.96245 1.69365,1.55981 2.48149,2.15714 0,0 0.009,0.15327 0.18112,0.36151 0.34298,0.50287 0.58702,0.6775 0.90383,0.73217 0,0 0.28614,0.39748 0.7657,0.8747 3.46552,3.85735 6.45148,7.23747 9.43744,10.61758 0.0303,0.43998 0.19897,0.80334 0.86096,1.53206 0.35326,0.44197 0.45356,1.09577 0.15177,1.36191 0.49003,0.95826 1.28197,1.65038 2.07404,2.34247 m -274.92613,-2.6887 c 0,0 -0.54957,0.12811 -1.40388,0.22677 -0.54974,0.94048 -1.09948,1.88096 -1.67725,2.69271 0,0 0.12175,0.003 -0.51586,0.2269 -0.25135,0.38226 -0.50262,0.76454 -1.42244,1.5214 -0.22478,0.76197 -0.44948,1.52393 -0.75866,2.94531 0,0 -0.1621,0.64209 -0.67527,0.87333 -0.37978,0.43161 -0.75958,0.8632 -1.97472,1.59508 -0.33936,0.8297 -0.67864,1.6594 -1.03765,3.12092 0,0 -0.0101,0.63206 -0.30263,0.70827 0,0 -0.29956,-0.0236 -1.14477,0.28978 -0.32642,0.84457 -0.65284,1.68914 -0.92083,2.48286 0,0 0.0333,0.073 -0.88417,0.01 -2.50976,3.7002 -6.54646,7.10742 -7.20632,11.16262 -1.30986,8.05129 -6.32254,7.9055 -11.65762,9.38715 -8.98014,2.49392 -17.72512,6.00951 -26.50211,9.3054 -0.82804,0.31088 -1.18057,2.11534 -1.84782,3.72181 0,0 -0.15925,0.47542 -0.0616,0.47693 0,0 -0.0218,-0.10331 -0.86161,0.0364 -1.12675,0.87051 -2.25349,1.74107 -3.87738,2.73218 0,0 -0.37347,0.37618 -0.86917,0.53541 -0.28283,0.22559 -0.51046,0.50428 -0.65723,0.85409 0,0 -0.0114,-0.0288 -0.6845,0.18706 -0.32104,0.36149 -0.64216,0.72296 -1.6292,1.3057 -0.51803,0.4983 -1.03604,0.99659 -2.0817,1.67919 -0.30455,0.24303 -0.54143,0.54813 -0.65393,0.94385 0,0 -0.0131,-0.066 -0.65793,0.17324 -0.28707,0.37403 -0.57415,0.74809 -1.56414,1.43889 -1.39564,1.57501 -2.79121,3.15009 -4.80698,5.17173 -0.23017,0.46365 -0.46034,0.92732 -0.56391,1.38209 0,0 -0.0207,-0.13606 -0.70214,0.10207 -0.27822,0.41274 -0.55644,0.82549 -1.34759,1.46694 -0.30271,0.27321 -0.46627,0.62314 -1.16079,1.53471 -0.67217,1.24057 -1.34443,2.48108 -1.91073,3.73365 0,0 -0.018,-0.114 -0.74471,0.4096 0.25273,3.1892 0.50538,6.37842 0.92622,10.12825 0.21777,0.35395 0.52232,0.54429 1.12335,1.07046 0,0 0.13292,0.52966 0.26073,1.63223 5.80491,3.64186 9.77439,2.69642 11.08255,-3.16444 0,0 0.0507,-0.53303 0.37571,-0.57841 0,0 0.32528,0.0423 1.10611,-0.17958 0.34052,-0.42721 0.68104,-0.85446 0.83559,-1.08832 0,0 -0.17127,-0.20882 0.57815,-0.34596 0.26121,-0.4439 0.52241,-0.88778 0.87524,-1.18491 0,0 -0.15208,0.0647 0.51255,-0.15341 0.22864,-0.41843 0.45726,-0.83686 0.71977,-1.13101 0,0 -0.11544,-0.0326 0.54789,-0.24578 0.22494,-0.41885 0.44987,-0.83773 0.72402,-1.14075 0,0 -0.11709,-0.01 0.54565,-0.23082 0.22794,-0.41967 0.45595,-0.83932 0.5854,-1.1663 0,0 -0.0616,-0.12468 0.82287,-0.0293 0.61458,-0.9068 1.22917,-1.81366 1.89966,-2.61359 0,0 -0.11065,-0.0262 0.70275,-0.0319 0.57431,-0.51994 1.14861,-1.0399 1.77759,-1.43102 0,0 -0.12915,0.0215 0.52987,-0.2096 0.23965,-0.41384 0.47929,-0.82766 0.71654,-1.11852 0,0 -0.10093,-0.0559 0.8409,0.0549 0.97827,-0.9597 1.95655,-1.91941 2.99174,-2.77214 0,0 -0.11279,-0.0152 0.8834,0.0419 1.75442,-0.61342 3.50144,-1.25333 5.26455,-1.83545 6.06934,-2.00357 12.04319,-4.65061 18.24944,-5.76632 4.89748,-0.88042 10.09072,0.34454 15.13626,0.14598 1.1601,-0.0456 2.2535,-2.09142 3.90711,-3.55482 0.41282,-0.16511 0.69366,-0.47249 1.50014,-1.25418 0.23279,-0.44001 0.46558,-0.88004 0.58855,-1.1952 0,0 0.12402,0.1081 0.62636,-0.0319 0,0 0.49399,-0.17524 1.39326,-0.30875 2.22962,-7.29448 4.45924,-14.58898 6.73183,-21.78665 0,0 -0.0929,-0.0371 0.74047,-0.0859 0.62175,-1.7807 1.24341,-3.56136 2.0465,-6.18964 0.76836,-1.51836 1.53672,-3.03675 2.93822,-5.07227 0.70336,-1.20782 1.40666,-2.41561 2.5816,-3.71815 0,0 0.46303,-0.13592 0.98937,0.55391 0.64708,-1.29123 1.29416,-2.58245 2.00183,-4.28687 0.12024,-0.28566 0.32504,-0.43226 1.4089,-0.64749 0.38218,-0.39719 0.76435,-0.79437 0.91282,-1.09154 0,0 -0.11393,-0.24312 0.75318,-0.3574 1.4645,-1.82959 2.92906,-3.65915 4.42289,-5.29148 0,0 -0.18197,-0.0296 0.50022,-0.15276 0.274,-0.37675 0.54805,-0.75348 1.46527,-1.48503 0.19936,-0.4663 0.39873,-0.93263 0.63475,-1.84502 0,0 0.0705,-0.44125 0.69928,-0.68996 0.29556,-0.35637 0.59103,-0.71275 1.39966,-1.09875 0,0 0.51309,-0.0303 1.3064,-0.17044 0.50585,-0.59057 1.01169,-1.18114 1.5592,-2.19862 0,0 0.13585,-0.40312 0.69822,-0.43777 0,0 0.56321,-0.0137 1.35344,-0.0544 0.5914,-0.46512 1.1828,-0.93023 2.74687,-1.33289 5.50826,-2.4499 10.84428,-5.68457 16.56525,-7.16504 8.49169,-2.19743 17.22241,-3.46866 25.91278,-4.55577 10.55752,-1.32069 20.63368,1.03517 30.23679,5.99397 1.80032,0.92964 3.90911,1.15507 6.10723,2.69087 2.04488,0.55997 4.08976,1.11994 6.20655,2.67581 2.5217,1.49723 5.04333,2.99447 8.12108,4.62206 0.37733,0.1818 0.60804,0.49211 0.89341,1.65104 0.3533,0.29871 0.70661,0.59743 1.13107,1.84527 1.19496,0.63152 2.38993,1.26305 4.20487,2.0828 0.19721,0.0919 0.39434,0.18389 0.8322,0.79303 0.26559,0.29351 0.58778,0.43536 1.15685,0.87248 0,0 0.0877,0.48301 0.31134,1.40928 4.99865,4.42994 6.54091,4.07768 9.71145,-2.73074 0,0 0.12823,-0.51164 0.0447,-0.533 0,0 0.0197,0.0907 0.49153,-0.0492 0,0 0.4856,-0.0618 1.40427,-0.11633 1.17795,-3.256 3.93467,-7.03011 3.20312,-9.65953 -1.49345,-5.36772 -5.08166,-9.79762 -12.06121,-9.70563 -1.06352,-0.79936 -2.12697,-1.59874 -3.26503,-2.73795 0,0 0.006,-0.34929 -0.1989,-1.21135 -0.42407,-0.3353 -0.84814,-0.67063 -1.15109,-0.86969 0,0 -0.15146,0.0939 -0.0269,-0.94276 -1.25873,-0.60619 -2.51738,-1.21239 -3.66114,-2.05831 0,0 -0.0585,0.26271 -0.28269,-0.70602 -1.60333,-0.65804 -3.20674,-1.31609 -4.69887,-2.0099 0,0 0.009,0.1255 -0.36455,-0.65227 -0.75196,-0.23554 -1.50383,-0.47106 -2.15137,-0.69274 0,0 -0.0593,0.0944 -0.10788,-0.92477 -2.49743,-1.06656 -4.99487,-2.13312 -7.7134,-4.02343 -0.56052,-1.19419 -1.15792,-3.44834 -1.67617,-3.42706 -11.95702,0.49094 -22.48104,-8.27448 -34.9131,-5.72845 -9.59927,1.96586 -19.51295,2.07732 -29.24852,3.35739 -1.20545,0.15852 -2.17479,2.43494 -3.79459,3.82146 0,0 -0.54721,0.0197 -1.59055,-0.03 -3.30292,-0.0891 -6.81983,-0.64902 -8.80211,4.14749 -3.90179,0.4646 -7.90638,0.74575 -9.40005,6.52228 -0.30301,0.25471 -0.645,0.35894 -1.82225,0.39139 -0.59217,0.49552 -1.18434,0.99105 -1.75835,1.35328 0,0 0.11582,0.0485 -0.85391,-0.0317 -0.96133,1.03152 -1.92267,2.06306 -3.14189,3.62445 -0.27908,0.28989 -0.6115,0.44433 -1.85246,0.51224 -0.97796,0.97107 -1.95593,1.94214 -2.93768,2.7355 0,0 0.16103,0.0321 -0.52972,0.32978 -0.23254,0.46023 -0.46518,0.9205 -0.75541,1.85722 0,0 -0.14516,0.45397 -0.63569,0.5004 0,0 -0.49059,0.0441 -1.3817,0.0665 -1.03988,1.32872 -2.07977,2.65744 -3.44214,4.68349 -0.7659,0.99025 -1.53172,1.98052 -2.91374,3.40597 -0.23294,0.45715 -0.46588,0.91432 -0.55751,1.33349 0,0 -0.0459,-0.14996 -0.59749,-0.0236 z"
   id="path3"
   style="stroke-width:1.31478" />














































































































































































































































































































































































































<path
   fill="#01122c"
   opacity="1"
   stroke="none"
   d="m 257.85636,120.25401 c 0.18437,-0.12482 0.31389,0.53646 0.24851,0.86704 -0.18787,-0.027 -0.31037,-0.38456 -0.24851,-0.86704 z"
   id="path402"
   style="stroke-width:1.31478" />




































































































<path
   fill="#2c1c2a"
   opacity="1"
   stroke="none"
   d="m 292.2866,408.17476 c 0.24991,-0.24368 0.59004,-0.07 1.02768,0.50516 -0.27615,0.32146 -0.62115,0.15831 -1.02768,-0.50516 z"
   id="path503"
   style="stroke-width:1.31478" />
















































































































































































































































<g
   style="opacity:1;fill:none;fill-rule:nonzero;stroke:none;stroke-width:0;stroke-linecap:butt;stroke-linejoin:miter;stroke-miterlimit:10;stroke-dasharray:none"
   transform="matrix(2.6741171,0,0,2.7802905,702.21898,323.21124)"
   id="g5">
	<path
   d="M 75.546,78.738 H 14.455 C 6.484,78.738 0,72.254 0,64.283 V 25.716 C 0,17.746 6.485,11.261 14.455,11.261 h 61.091 c 7.97,0 14.454,6.485 14.454,14.455 v 38.567 c 0,7.971 -6.484,14.455 -14.454,14.455 z M 14.455,15.488 c -5.64,0 -10.228,4.588 -10.228,10.228 v 38.567 c 0,5.64 4.588,10.229 10.228,10.229 h 61.091 c 5.64,0 10.228,-4.589 10.228,-10.229 V 25.716 c 0,-5.64 -4.588,-10.228 -10.228,-10.228 H 14.455 Z"
   style="opacity:1;fill:#1d1d1b;fill-rule:nonzero;stroke:none;stroke-width:1;stroke-linecap:butt;stroke-linejoin:miter;stroke-miterlimit:10;stroke-dasharray:none"
   stroke-linecap="round"
   id="path1" />
	<path
   d="M 11.044,25.917 C 21.848,36.445 32.652,46.972 43.456,57.5 45.47,59.462 48.561,56.378 46.544,54.412 35.74,43.885 24.936,33.357 14.132,22.83 12.118,20.867 9.027,23.952 11.044,25.917 Z"
   style="opacity:1;fill:#1d1d1b;fill-rule:nonzero;stroke:none;stroke-width:1;stroke-linecap:butt;stroke-linejoin:miter;stroke-miterlimit:10;stroke-dasharray:none"
   stroke-linecap="round"
   id="path2-3" />
	<path
   d="M 46.544,57.5 C 57.348,46.973 68.152,36.445 78.956,25.918 80.972,23.953 77.883,20.867 75.868,22.83 65.064,33.357 54.26,43.885 43.456,54.412 c -2.016,1.965 1.073,5.051 3.088,3.088 z"
   style="opacity:1;fill:#1d1d1b;fill-rule:nonzero;stroke:none;stroke-width:1;stroke-linecap:butt;stroke-linejoin:miter;stroke-miterlimit:10;stroke-dasharray:none"
   stroke-linecap="round"
   id="path3-6" />
	<path
   d="M 78.837,64.952 C 71.648,58.134 64.458,51.317 57.269,44.499 c -2.039,-1.933 -5.132,1.149 -3.088,3.088 7.189,6.818 14.379,13.635 21.568,20.453 2.039,1.933 5.132,-1.15 3.088,-3.088 z"
   style="opacity:1;fill:#1d1d1b;fill-rule:nonzero;stroke:none;stroke-width:1;stroke-linecap:butt;stroke-linejoin:miter;stroke-miterlimit:10;stroke-dasharray:none"
   stroke-linecap="round"
   id="path4-7" />
	<path
   d="m 14.446,68.039 c 7.189,-6.818 14.379,-13.635 21.568,-20.453 2.043,-1.938 -1.048,-5.022 -3.088,-3.088 -7.189,6.818 -14.379,13.635 -21.568,20.453 -2.043,1.938 1.048,5.023 3.088,3.088 z"
   style="opacity:1;fill:#1d1d1b;fill-rule:nonzero;stroke:none;stroke-width:1;stroke-linecap:butt;stroke-linejoin:miter;stroke-miterlimit:10;stroke-dasharray:none"
   stroke-linecap="round"
   id="path5-5" />
</g></svg>
